:SAMPLES-PER-SECOND 30
:FULLY-SPECIFIED
:DEGREES
382
root  -6.81612 38.2927 43.7654 -6.70783 -15.0928 0.541349
RightUpLeg  -19.3244 -9.62242 -1.09333
RightLeg  46.5783 8.22795 -9.88492
RightFoot  -15.1611 0.124062 5.24594
RightToes  -5.82073e-011 -3.18055e-015 -2.98177e-016
Spine  15.5986 -0.459352 1.83313
Spine1  -6.10993 -0.401115 1.56638
HEad  -18.5203 11.3107 -4.69214
LeftShoulder1  -3.88251e-019 9.70628e-020 -3.87848e-018
LeftArm  -29.8901 55.0867 -70.9043
LeftForeArm  -8.20778 -6.84588 -2.42354
LeftHand  -0.678794 -1.42482 12.4097
RightShoulder  6.57729 9.82541 32.1319
RightArm  7.39503 -18.3855 28.7951
RightForeArm  7.20721 18.2471 -8.46956
RightHand  -1.28132 3.90695 -15.8208
LeftUpLeg  -15.3164 15.7372 -3.94756
LeftLeg  32.3438 -5.74976 6.35191
LeftFoot  -17.2001 -0.121392 -2.08248
LeftToes  5.79026e-011 9.70705e-012 -3.73859e-011
383
root  -7.23429 38.4304 43.4806 -5.78016 -13.2923 -0.118497
RightUpLeg  -16.7569 -8.77767 -1.23739
RightLeg  44.7562 9.10252 -8.35072
RightFoot  -12.551 -0.00214986 7.60587
RightToes  -5.82073e-011 -3.18055e-015 -2.98177e-016
Spine  13.9982 -0.59203 0.614316
Spine1  -6.56066 -0.946421 3.55812
HEad  -15.6797 11.5834 -4.43762
LeftShoulder1  -3.88251e-019 9.70628e-020 -3.87848e-018
LeftArm  -25.5121 50.3849 -69.8398
LeftForeArm  -0.597296 -9.27508 -3.66193
LeftHand  -0.791851 -2.2688 12.8175
RightShoulder  6.29818 9.56827 31.1786
RightArm  11.727 -17.4294 30.3179
RightForeArm  -3.59874 24.4669 -13.1613
RightHand  -1.27276 3.07093 -17.2055
LeftUpLeg  -16.2255 13.353 -3.16101
LeftLeg  31.3816 -5.24908 6.50169
LeftFoot  -16.9652 -0.126869 -2.40067
LeftToes  5.79026e-011 9.70705e-012 -3.73859e-011
384
root  -7.6973 38.424 43.2162 -5.44538 -10.5254 0.0525289
RightUpLeg  -12.6667 -8.00523 -2.02564
RightLeg  40.7386 10.3792 -6.09618
RightFoot  -13.9166 0.0974484 9.47646
RightToes  -5.82073e-011 -3.18055e-015 -2.98177e-016
Spine  12.5612 -0.85884 -1.48012
Spine1  -6.26274 -1.65862 6.06311
HEad  -13.9547 11.1271 -3.04565
LeftShoulder1  -3.88251e-019 9.70628e-020 -3.87848e-018
LeftArm  -20.4389 45.9589 -68.7634
LeftForeArm  4.23343 -14.245 -4.27195
LeftHand  -0.901793 -3.28103 12.841
RightShoulder  6.1297 9.4547 30.496
RightArm  10.4973 -18.3278 30.4236
RightForeArm  -11.5088 33.3742 -17.6195
RightHand  -1.40178 2.75472 -19.6028
LeftUpLeg  -17.126 10.6976 -3.07645
LeftLeg  31.0671 -5.30437 6.39801
LeftFoot  -16.2193 -0.130869 -3.22318
LeftToes  5.79026e-011 9.70705e-012 -3.73859e-011
385
root  -8.14061 38.3005 42.9265 -5.30445 -7.86256 -0.193294
RightUpLeg  -8.58102 -8.51367 -1.7294
RightLeg  35.5387 11.0785 -4.649
RightFoot  -17.6572 0.370353 8.28515
RightToes  -5.82073e-011 -3.18055e-015 -2.98177e-016
Spine  11.6762 -1.07383 -1.68039
Spine1  -6.05833 -1.89504 7.33978
HEad  -13.0245 9.45214 -0.831835
LeftShoulder1  -3.88251e-019 9.70628e-020 -3.87848e-018
LeftArm  -10.7927 41.2123 -67.8101
LeftForeArm  0.660494 -20.3527 -2.9051
LeftHand  -0.928049 -4.08146 12.0657
RightShoulder  6.08175 9.43478 30.2725
RightArm  9.01185 -20.4685 29.8135
RightForeArm  -20.9166 42.4965 -23.6398
RightHand  -1.67145 3.14424 -22.2644
LeftUpLeg  -18.4067 10.4158 -2.36017
LeftLeg  31.8436 -7.1393 5.28378
LeftFoot  -15.508 -0.140661 -4.6594
LeftToes  5.79026e-011 9.70705e-012 -3.73859e-011
386
root  -8.47188 38.0855 42.56 -5.36329 -5.96086 -1.93401
RightUpLeg  -5.93628 -11.7317 0.198342
RightLeg  31.9063 12.059 -3.49955
RightFoot  -20.785 0.463353 5.96524
RightToes  -5.82073e-011 -3.18055e-015 -2.98177e-016
Spine  11.8704 -1.25369 2.35103
Spine1  -6.32103 -1.39084 5.69702
HEad  -13.1372 6.71071 1.37921
LeftShoulder1  -3.88251e-019 9.70628e-020 -3.87848e-018
LeftArm  3.46754 35.9841 -67.6572
LeftForeArm  -12.4261 -26.3386 2.19981
LeftHand  -0.870508 -4.29336 11.0924
RightShoulder  6.15198 9.46855 30.5887
RightArm  7.47588 -22.7977 28.8012
RightForeArm  -30.1469 50.5521 -31.0747
RightHand  -2.0369 3.99845 -24.6331
LeftUpLeg  -20.2352 10.6418 -0.0798838
LeftLeg  34.0943 -9.16812 4.14292
LeftFoot  -15.5114 -0.16383 -5.7582
LeftToes  5.79026e-011 9.70705e-012 -3.73859e-011
387
root  -8.66774 37.8156 42.1134 -5.9198 -4.61753 -4.39219
RightUpLeg  -5.11122 -16.2439 2.4484
RightLeg  31.8136 13.6746 -2.36294
RightFoot  -22.2366 0.42105 4.40243
RightToes  -5.82073e-011 -3.18055e-015 -2.98177e-016
Spine  13.0117 -1.59086 8.42669
Spine1  -6.2656 -0.69515 2.34488
HEad  -14.8696 4.00812 2.70449
LeftShoulder1  -3.88251e-019 9.70628e-020 -3.87848e-018
LeftArm  7.63778 31.4427 -68.1799
LeftForeArm  -18.7218 -31.9865 6.39559
LeftHand  -0.888066 -4.66646 10.891
RightShoulder  6.36901 9.6283 31.4337
RightArm  7.01217 -23.9717 27.499
RightForeArm  -38.503 56.6375 -39.3745
RightHand  -2.44045 4.90159 -26.8608
LeftUpLeg  -22.0761 8.37611 2.80865
LeftLeg  36.9811 -9.32716 4.37334
LeftFoot  -15.9566 -0.179458 -5.47089
LeftToes  5.79026e-011 9.70705e-012 -3.73859e-011
388
root  -8.80673 37.5823 41.6616 -6.69023 -4.15262 -5.93052
RightUpLeg  -5.69384 -17.725 4.06208
RightLeg  33.787 13.9771 -2.26389
RightFoot  -22.3312 0.360969 3.61729
RightToes  -5.82073e-011 -3.18055e-015 -2.98177e-016
Spine  14.2417 -1.73622 12.3793
Spine1  -5.39499 -0.0575777 -0.0197332
HEad  -17.3968 2.38635 3.15808
LeftShoulder1  -3.88251e-019 9.70628e-020 -3.87848e-018
LeftArm  2.28458 29.227 -69.2388
LeftForeArm  -17.2223 -38.6199 8.16428
LeftHand  -1.07101 -5.80082 11.7381
RightShoulder  6.66826 9.89666 32.4647
RightArm  8.44651 -23.6761 26.4295
RightForeArm  -44.4222 60.1206 -46.2065
RightHand  -2.87787 5.78881 -29.0838
LeftUpLeg  -23.174 4.90168 4.65833
LeftLeg  38.8447 -7.55961 6.16967
LeftFoot  -16.5516 -0.175318 -4.33784
LeftToes  5.79026e-011 9.70705e-012 -3.73859e-011
389
root  -8.96589 37.4825 41.3012 -6.97607 -4.99307 -5.99205
RightUpLeg  -6.80751 -16.0379 4.90191
RightLeg  35.0414 13.3117 -2.84074
RightFoot  -21.9038 0.302781 3.05565
RightToes  -5.82073e-011 -3.18055e-015 -2.98177e-016
Spine  14.6998 -1.22279 12.695
Spine1  -4.17621 0.573076 -0.0726736
HEad  -18.8539 2.05938 3.66888
LeftShoulder1  -3.88251e-019 9.70628e-020 -3.87848e-018
LeftArm  -3.20785 29.9502 -70.5083
LeftForeArm  -17.1899 -45.3173 10.6152
LeftHand  -1.42879 -7.2415 13.7496
RightShoulder  6.9168 10.1245 33.2822
RightArm  11.4294 -22.89 26.5549
RightForeArm  -44.3257 60.8667 -48.1131
RightHand  -3.26453 6.78749 -30.2761
LeftUpLeg  -23.4156 3.23629 5.06603
LeftLeg  39.0974 -4.9952 8.50988
LeftFoot  -17.4777 -0.203309 -4.04729
LeftToes  5.79026e-011 9.70705e-012 -3.73859e-011
390
root  -9.10937 37.548 41.0542 -6.75112 -6.27853 -5.45248
RightUpLeg  -7.46663 -14.442 5.19158
RightLeg  34.5727 13.0634 -3.00563
RightFoot  -21.4844 0.273519 2.82902
RightToes  -5.82073e-011 -3.18055e-015 -2.98177e-016
Spine  14.1156 -0.590942 11.2162
Spine1  -3.03029 0.844681 1.43142
HEad  -18.2313 2.50037 4.8793
LeftShoulder1  -3.88251e-019 9.70628e-020 -3.87848e-018
LeftArm  -6.56884 32.5464 -71.3045
LeftForeArm  -19.2471 -50.7523 13.0072
LeftHand  -2.0054 -8.7163 17.1024
RightShoulder  7.09679 10.2467 33.9522
RightArm  14.6835 -22.7141 28.1676
RightForeArm  -36.6247 59.0685 -44.462
RightHand  -3.30988 7.64469 -28.7466
LeftUpLeg  -23.1941 3.3602 4.92039
LeftLeg  38.6749 -2.96761 10.1815
LeftFoot  -18.3647 -0.28455 -5.09947
LeftToes  5.79026e-011 9.70705e-012 -3.73859e-011
391
root  -9.16716 37.7178 40.8851 -6.52618 -6.60796 -5.14231
RightUpLeg  -7.33643 -14.4314 5.19981
RightLeg  33.0923 13.1564 -2.84068
RightFoot  -20.9253 0.274179 3.07511
RightToes  -5.82073e-011 -3.18055e-015 -2.98177e-016
Spine  13.059 -0.694061 10.0989
Spine1  -1.96983 0.418803 2.79551
HEad  -16.0801 2.86025 6.28078
LeftShoulder1  -3.88251e-019 9.70628e-020 -3.87848e-018
LeftArm  -7.16465 35.6409 -71.4071
LeftForeArm  -21.2258 -53.6719 14.4943
LeftHand  -2.637 -10.2668 20.1661
RightShoulder  7.28521 10.3291 34.7421
RightArm  17.195 -23.6259 30.386
RightForeArm  -24.6431 55.2231 -38.1899
RightHand  -2.86839 8.01062 -24.3759
LeftUpLeg  -22.8206 2.91112 4.83141
LeftLeg  38.8429 -2.29518 10.8217
LeftFoot  -18.531 -0.35414 -6.41002
LeftToes  5.79026e-011 9.70705e-012 -3.73859e-011
392
root  -9.13111 37.9381 40.7674 -6.42922 -6.09367 -5.01186
RightUpLeg  -6.73983 -14.5503 5.05895
RightLeg  31.2032 12.7508 -2.90496
RightFoot  -19.9344 0.264118 3.41854
RightToes  -5.82073e-011 -3.18055e-015 -2.98177e-016
Spine  12.0651 -1.31134 9.83691
Spine1  -0.981299 -0.253466 2.95085
HEad  -13.5555 2.60584 6.9128
LeftShoulder1  -3.88251e-019 9.70628e-020 -3.87848e-018
LeftArm  -6.49757 38.7127 -71.3166
LeftForeArm  -19.5018 -53.8677 14.7177
LeftHand  -2.7461 -11.1755 19.7974
RightShoulder  7.46801 10.413 35.4895
RightArm  18.9566 -25.5399 32.1921
RightForeArm  -13.3286 49.9947 -31.6832
RightHand  -2.21915 7.89033 -19.1854
LeftUpLeg  -22.1412 1.40082 4.66197
LeftLeg  39.5686 -2.51386 10.8843
LeftFoot  -18.1425 -0.352772 -6.87525
LeftToes  5.79026e-011 9.70705e-012 -3.73859e-011
393
root  -9.03948 38.1765 40.7068 -6.17317 -6.0908 -4.77792
RightUpLeg  -6.1422 -12.5683 4.89209
RightLeg  28.9947 11.0166 -3.18467
RightFoot  -18.7675 0.247132 3.88138
RightToes  -5.82073e-011 -3.18055e-015 -2.98177e-016
Spine  10.9297 -1.58392 9.98348
Spine1  0.0201786 -0.407936 2.17254
HEad  -11.3249 1.91011 6.62447
LeftShoulder1  -3.88251e-019 9.70628e-020 -3.87848e-018
LeftArm  -6.49668 41.8015 -71.6013
LeftForeArm  -13.0448 -51.8732 13.998
LeftHand  -2.0706 -10.9481 15.2257
RightShoulder  7.59427 10.4824 35.9736
RightArm  20.1688 -27.8155 33.5417
RightForeArm  -5.1971 43.1911 -25.1862
RightHand  -1.69968 7.58363 -15.1458
LeftUpLeg  -20.9409 0.784883 4.24323
LeftLeg  40.0934 -2.49537 11.0921
LeftFoot  -17.8988 -0.311895 -6.28161
LeftToes  5.79026e-011 9.70705e-012 -3.73859e-011
